<svg xmlns="http://www.w3.org/2000/svg" xmlns:xlink="http://www.w3.org/1999/xlink" xmlns:v="http://vecta.io" width="320" height="100" viewBox="0 0 320 100"><style><![CDATA[svg{stroke:#000;stroke-linecap:round;stroke-linejoin:round;fill:#fff;fill-rule:evenodd;font-family:Roboto;font-size:14px;text-anchor:middle}svg text{paint-order:stroke;white-space:pre}svg .Text\.cls{stroke:none}]]></style><defs><style>@import url("https://fonts.googleapis.com/css?family=Anonymous+Pro:400,400i,700,700i");</style><linearGradient id="L001001000ec3932100100941212100.grad" x1="0%" y1="0%" x2="100%" y2="100%"><stop offset="0%" stop-color="#ec3932" stop-opacity="1"/><stop offset="100%" stop-color="#941212" stop-opacity="1"/></linearGradient></defs><g transform="translate(-86.52 4.5)"><g ><g transform="translate(87.98 0)"><path d="M 51.54 18.72 C 51.21 17.67 50.28 16.93 49.18 16.83 L 34.27 15.47 L 28.36 1.67 C 27.93 0.66 26.94 0 25.84 0 C 24.74 0 23.75 0.66 23.31 1.67 L 17.42 15.47 L 2.5 16.83 C 1.4 16.93 0.48 17.67 0.14 18.72 C -0.21 19.76 0.11 20.91 0.94 21.63 L 12.21 31.52 L 8.89 46.17 C 8.65 47.24 9.06 48.36 9.96 49 C 10.44 49.35 11 49.53 11.56 49.53 C 12.05 49.53 12.54 49.4 12.97 49.13 L 25.84 41.45 L 38.7 49.13 C 39.64 49.7 40.83 49.65 41.72 49 C 42.62 48.36 43.03 47.24 42.79 46.17 L 39.47 31.52 L 50.74 21.64 C 51.57 20.91 51.89 19.76 51.54 18.72 Z M 51.54 18.72" stroke="none" stroke-linejoin="miter" stroke-linecap="butt" fill="#ffc107" fill-rule="nonzero" stroke-width="1.33076"/></g><g transform="translate(153.7 0)"><path d="M 51.54 18.72 C 51.21 17.67 50.28 16.93 49.18 16.83 L 34.27 15.47 L 28.36 1.67 C 27.93 0.66 26.94 0 25.84 0 C 24.74 0 23.75 0.66 23.31 1.67 L 17.42 15.47 L 2.5 16.83 C 1.4 16.93 0.48 17.67 0.14 18.72 C -0.21 19.76 0.11 20.91 0.94 21.63 L 12.21 31.52 L 8.89 46.17 C 8.65 47.24 9.06 48.36 9.96 49 C 10.44 49.35 11 49.53 11.56 49.53 C 12.05 49.53 12.54 49.4 12.97 49.13 L 25.84 41.45 L 38.7 49.13 C 39.64 49.7 40.83 49.65 41.72 49 C 42.62 48.36 43.03 47.24 42.79 46.17 L 39.47 31.52 L 50.74 21.64 C 51.57 20.91 51.89 19.76 51.54 18.72 Z M 51.54 18.72" stroke="none" stroke-linejoin="miter" stroke-linecap="butt" fill="#ffc107" fill-rule="nonzero" stroke-width="1.33076"/></g><g transform="translate(219.41 0)"><path d="M 51.54 18.72 C 51.21 17.67 50.28 16.93 49.18 16.83 L 34.27 15.47 L 28.36 1.67 C 27.93 0.66 26.94 0 25.84 0 C 24.74 0 23.75 0.66 23.31 1.67 L 17.42 15.47 L 2.5 16.83 C 1.4 16.93 0.48 17.67 0.14 18.72 C -0.21 19.76 0.11 20.91 0.94 21.63 L 12.21 31.52 L 8.89 46.17 C 8.65 47.24 9.06 48.36 9.96 49 C 10.44 49.35 11 49.53 11.56 49.53 C 12.05 49.53 12.54 49.4 12.97 49.13 L 25.84 41.45 L 38.7 49.13 C 39.64 49.7 40.83 49.65 41.72 49 C 42.62 48.36 43.03 47.24 42.79 46.17 L 39.47 31.52 L 50.74 21.64 C 51.57 20.91 51.89 19.76 51.54 18.72 Z M 51.54 18.72" stroke="none" stroke-linejoin="miter" stroke-linecap="butt" fill="#ffc107" fill-rule="nonzero" stroke-width="1.33076"/></g><g transform="translate(285.12 0)"><path d="M 51.54 18.72 C 51.21 17.67 50.28 16.93 49.18 16.83 L 34.27 15.47 L 28.36 1.67 C 27.93 0.66 26.94 0 25.84 0 C 24.74 0 23.75 0.66 23.31 1.67 L 17.42 15.47 L 2.5 16.83 C 1.4 16.93 0.48 17.67 0.14 18.72 C -0.21 19.76 0.11 20.91 0.94 21.63 L 12.21 31.52 L 8.89 46.17 C 8.65 47.24 9.06 48.36 9.96 49 C 10.44 49.35 11 49.53 11.56 49.53 C 12.05 49.53 12.54 49.4 12.97 49.13 L 25.84 41.45 L 38.7 49.13 C 39.64 49.7 40.83 49.65 41.72 49 C 42.62 48.36 43.03 47.24 42.79 46.17 L 39.47 31.52 L 50.74 21.64 C 51.57 20.91 51.89 19.76 51.54 18.72 Z M 51.54 18.72" stroke="none" stroke-linejoin="miter" stroke-linecap="butt" fill="#ffc107" fill-rule="nonzero" stroke-width="1.33076"/></g><g transform="translate(350.83 0)"><path d="M 51.54 18.72 C 51.21 17.67 50.28 16.93 49.18 16.83 L 34.27 15.47 L 28.36 1.67 C 27.93 0.66 26.94 0 25.84 0 C 24.74 0 23.75 0.66 23.31 1.67 L 17.42 15.47 L 2.5 16.83 C 1.4 16.93 0.48 17.67 0.14 18.72 C -0.21 19.76 0.11 20.91 0.94 21.63 L 12.21 31.52 L 8.89 46.17 C 8.65 47.24 9.06 48.36 9.96 49 C 10.44 49.35 11 49.53 11.56 49.53 C 12.05 49.53 12.54 49.4 12.97 49.13 L 25.84 41.45 L 38.7 49.13 C 39.64 49.7 40.83 49.65 41.72 49 C 42.62 48.36 43.03 47.24 42.79 46.17 L 39.47 31.52 L 50.74 21.64 C 51.57 20.91 51.89 19.76 51.54 18.72 Z M 51.54 18.72" stroke="none" stroke-linejoin="miter" stroke-linecap="butt" fill="#ffc107" fill-rule="nonzero" stroke-width="1.33076"/></g><g transform="translate(93.95 66.67)"><path d="M 0 0 L 300.95 0 L 300.95 93.33 L 0 93.33 Z" stroke="none" fill="none" stroke-width="0"/></g><g transform="translate(0 0)"><path d="M 0 0 L 500.67 0 L 500.67 133.33 L 0 133.33 Z" stroke="none" fill="none" stroke-width="1"/></g><g transform="translate(99.09 51.35)"><rect x="0" y="0" width="302.48" height="30.4" stroke="none" fill="none" stroke-width="1"/><g class="Text.cls"><rect x="0" y="0" width="302.48" height="30.4" fill="none" stroke="none"/><text fill="url(#L001001000ec3932100100941212100.grad)" fill-opacity="1" font-size="48px" font-family="Anonymous Pro" font-weight="bold"><tspan x="151.24" y="31.04">MOVIE LAND</tspan></text></g></g></g></g></svg>